# xmcd CD database file
#
# Track frame offsets:
#	150
#	19482
#	32470
#	51664
#	67018
#	89840
#	113695
#	128419
#	143604
#	168326
#	183530
#	200748
#	215156
#
# Disc length: 3446 seconds
#
# Revision: 0
# Processed by: cddbd v1.5.2PL0 Copyright (c) Steve Scherf et al.
# Submitted via: CDex 1.51
#
DISCID=c70d740d
DTITLE=Fab'M - Les bouts de ficelles
DYEAR=2009
DGENRE=Country
TTITLE0=Le choix
TTITLE1=Parlons d'amour
TTITLE2=Si tu savais
TTITLE3=Rose
TTITLE4=L'encre
TTITLE5=My brother my friend
TTITLE6=J'ai zappé
TTITLE7=Y'a des matins
TTITLE8=Tableau d'une vie
TTITLE9=La rencontre
TTITLE10=Grève de la "fin" (à propos d'une chanson d'amour)
TTITLE11=Nous
TTITLE12=Je prie pour Toi ...
EXTD=YEAR: 2009
EXTT0=
EXTT1=
EXTT2=
EXTT3=
EXTT4=
EXTT5=
EXTT6=
EXTT7=
EXTT8=
EXTT9=
EXTT10=
EXTT11=
EXTT12=
PLAYORDER=
